<svg width="60" height="60" viewBox="0 0 60 60" fill="none" xmlns="http://www.w3.org/2000/svg">
<circle cx="30" cy="30" r="30" transform="rotate(180 30 30)" fill="#FF3333"/>
<path d="M39.8337 28.8294L26.4833 15.4793C26.1745 15.1702 25.7624 15 25.3228 15C24.8833 15 24.4711 15.1702 24.1624 15.4793L23.1792 16.4622C22.5395 17.1027 22.5395 18.1436 23.1792 18.7831L34.3898 29.9938L23.1668 41.2169C22.858 41.5259 22.6875 41.9378 22.6875 42.3771C22.6875 42.8168 22.858 43.2288 23.1668 43.5381L24.1499 44.5207C24.459 44.8298 24.8709 45 25.3104 45C25.7499 45 26.1621 44.8298 26.4709 44.5207L39.8337 31.1584C40.1432 30.8484 40.3132 30.4345 40.3122 29.9945C40.3132 29.5528 40.1432 29.1392 39.8337 28.8294Z" fill="white"/>
</svg>
