<svg width="60" height="60" viewBox="0 0 60 60" fill="none" xmlns="http://www.w3.org/2000/svg">
<circle cx="30" cy="30" r="30" fill="#FF3333"/>
<path d="M20.1663 31.1706L33.5167 44.5207C33.8255 44.8298 34.2376 45 34.6772 45C35.1167 45 35.5289 44.8298 35.8376 44.5207L36.8208 43.5378C37.4605 42.8973 37.4605 41.8564 36.8208 41.2169L25.6102 30.0062L36.8332 18.7831C37.142 18.4741 37.3125 18.0622 37.3125 17.6229C37.3125 17.1832 37.142 16.7712 36.8332 16.4619L35.8501 15.4793C35.541 15.1702 35.1291 15 34.6896 15C34.2501 15 33.8379 15.1702 33.5291 15.4793L20.1663 28.8416C19.8568 29.1516 19.6868 29.5655 19.6878 30.0055C19.6868 30.4472 19.8568 30.8608 20.1663 31.1706Z" fill="white"/>
</svg>
