<svg width="86" height="86" viewBox="0 0 86 86" fill="none" xmlns="http://www.w3.org/2000/svg">
<path d="M43 0L86 43L43 86L3.07341e-06 43L43 0Z" fill="url(#paint0_linear_14_15)"/>
<path d="M15.1033 38.3061L19.0438 48.6246L22.9844 38.3061H21.7876L19.0438 45.7348L16.3 38.3061H15.1033Z" fill="white"/>
<path d="M24.3514 38.3061V48.0408H25.4314V38.3061H24.3514Z" fill="white"/>
<path d="M27.9431 38.3061V48.0408H29.0231V43.8083H29.9717C32.1901 43.8083 33.0512 42.451 33.0512 41.0791C33.0512 40.4661 32.8761 39.605 32.1609 38.9921C31.5042 38.4229 30.6869 38.3061 29.709 38.3061H27.9431ZM29.0231 39.3277H29.8258C30.5263 39.3277 31.9712 39.4737 31.9712 41.0207C31.9712 42.1445 31.1977 42.7867 29.9133 42.7867H29.0231V39.3277Z" fill="white"/>
<path d="M45.4487 39.1088C44.2811 38.2185 43.1573 38.1456 42.5735 38.1456C39.6546 38.1456 37.48 40.3056 37.48 43.2099C37.48 46.0267 39.6254 48.2159 42.5152 48.2159C43.2449 48.2159 44.3687 48.0408 45.4487 47.2672V45.9245C45.2736 46.0997 44.8795 46.4645 44.3249 46.7418C43.8141 47.0045 43.1719 47.1943 42.5152 47.1943C40.7346 47.1943 38.5892 45.8662 38.5892 43.2245C38.5892 40.9769 40.253 39.1672 42.5006 39.1672C43.0698 39.1672 43.6681 39.3131 44.179 39.5467C44.6752 39.7802 45.1422 40.145 45.4487 40.4515V39.1088Z" fill="white"/>
<path d="M51.9796 48.2159C54.7964 48.2159 57.0439 46.0705 57.0439 43.1807C57.0439 40.2764 54.7818 38.1456 51.9796 38.1456C49.1774 38.1456 46.9152 40.2764 46.9152 43.1807C46.9152 46.0705 49.1628 48.2159 51.9796 48.2159ZM51.9796 39.1672C54.1688 39.1672 55.9347 40.9478 55.9347 43.1807C55.9347 45.4137 54.1688 47.1943 51.9796 47.1943C49.7904 47.1943 48.0244 45.4137 48.0244 43.1807C48.0244 40.9478 49.7904 39.1672 51.9796 39.1672Z" fill="white"/>
<path d="M59.028 38.3061V48.0408H60.108V38.3061H59.028Z" fill="white"/>
<path d="M63.6997 48.0408V40.5245L71.2889 48.4786V38.3061H70.2089V45.8516L62.6197 37.8975V48.0408H63.6997Z" fill="white"/>
<defs>
<linearGradient id="paint0_linear_14_15" x1="78.5" y1="-1.64516e-06" x2="21.5" y2="64.5" gradientUnits="userSpaceOnUse">
<stop stop-color="#FF3333"/>
<stop offset="0.990537" stop-color="#FF3333" stop-opacity="0"/>
</linearGradient>
</defs>
</svg>
