<svg width="435" height="251" viewBox="0 0 435 251" fill="none" xmlns="http://www.w3.org/2000/svg">
<g filter="url('#filter0_i_29_50')">
<rect width="435" height="251" fill="#E3E3E3"></rect>
</g>
<path d="M33 196.3C93.6401 185.318 237.398 136.653 327.31 29.8564" stroke="#FF3333" stroke-width="3"></path>
<line x1="33.5" y1="30" x2="33.5" y2="217" stroke="black"></line>
<path d="M22.004 32.0899L22.004 31.2019L16.856 31.2019C16.184 31.2019 15.536 31.2739 14.936 31.7059C14.276 32.1859 13.856 33.0259 13.856 34.0459C13.856 35.0659 14.276 35.9059 14.936 36.3859C15.536 36.8179 16.184 36.8899 16.856 36.8899L22.004 36.8899L22.004 36.0019L17.096 36.0019C16.424 36.0019 15.692 36.0019 15.152 35.3659C14.876 35.0419 14.696 34.4899 14.696 34.0459C14.696 33.6019 14.876 33.0499 15.152 32.7259C15.692 32.0899 16.424 32.0899 17.096 32.0899L22.004 32.0899ZM20.888 43.2437C21.236 43.0637 21.56 42.7877 21.776 42.4637C22.04 42.0677 22.136 41.6717 22.136 41.1797C22.136 39.8837 21.308 38.9357 20.072 38.9357C19.472 38.9357 19.1 39.1397 18.764 39.4877C18.416 39.8477 18.248 40.2437 18.104 40.5557L17.768 41.2757C17.576 41.6957 17.432 42.0077 17.216 42.2357C16.952 42.5237 16.64 42.6317 16.28 42.6317C15.476 42.6317 14.696 42.1157 14.696 41.0237C14.696 40.6157 14.792 40.2197 15.14 39.8717C15.38 39.6437 15.74 39.4517 16.16 39.3917L15.92 38.5277C15.44 38.6357 14.888 38.8757 14.504 39.2717C13.964 39.8237 13.856 40.4837 13.856 41.0117C13.856 42.4517 14.84 43.5437 16.316 43.5437C16.892 43.5437 17.36 43.3757 17.768 42.9677C18.104 42.6317 18.32 42.1997 18.524 41.7317L18.86 40.9637C18.992 40.6637 19.124 40.3637 19.364 40.1237C19.568 39.9077 19.748 39.8237 20.06 39.8237C20.804 39.8237 21.296 40.3757 21.296 41.1677C21.296 41.6237 21.14 41.9117 21.02 42.0677C20.876 42.2477 20.636 42.4277 20.42 42.5357L20.888 43.2437ZM14 45.1707L14 46.7907C14 48.2187 14.3 48.9867 14.924 49.7187C15.416 50.2947 16.316 51.1227 17.996 51.1227C19.436 51.1227 20.456 50.4867 21.068 49.7547C21.92 48.7467 22.004 47.6067 22.004 46.8027L22.004 45.1707L14 45.1707ZM21.164 46.0587L21.164 46.8387C21.164 48.8667 19.916 50.2107 17.996 50.2107C16.856 50.2107 16.064 49.7307 15.56 49.1307C14.912 48.3507 14.84 47.4747 14.84 46.8387L14.84 46.0587L21.164 46.0587ZM21.164 56.6647L22.004 56.6647L22.004 51.8887L21.164 51.8887L21.164 53.8327L14 53.8327L14 54.7207L21.164 54.7207L21.164 56.6647Z" fill="black"></path>
<path d="M14 184.551L14 185.439L22.004 185.439L22.004 183.675L21.164 183.207L21.164 184.551L14 184.551ZM22.004 192.9L22.004 192.012L16.856 192.012C16.184 192.012 15.536 192.084 14.936 192.516C14.276 192.996 13.856 193.836 13.856 194.856C13.856 195.876 14.276 196.716 14.936 197.196C15.536 197.628 16.184 197.7 16.856 197.7L22.004 197.7L22.004 196.812L17.096 196.812C16.424 196.812 15.692 196.812 15.152 196.176C14.876 195.852 14.696 195.3 14.696 194.856C14.696 194.412 14.876 193.86 15.152 193.536C15.692 192.9 16.424 192.9 17.096 192.9L22.004 192.9ZM20.888 204.054C21.236 203.874 21.56 203.598 21.776 203.274C22.04 202.878 22.136 202.482 22.136 201.99C22.136 200.694 21.308 199.746 20.072 199.746C19.472 199.746 19.1 199.95 18.764 200.298C18.416 200.658 18.248 201.054 18.104 201.366L17.768 202.086C17.576 202.506 17.432 202.818 17.216 203.046C16.952 203.334 16.64 203.442 16.28 203.442C15.476 203.442 14.696 202.926 14.696 201.834C14.696 201.426 14.792 201.03 15.14 200.682C15.38 200.454 15.74 200.262 16.16 200.202L15.92 199.338C15.44 199.446 14.888 199.686 14.504 200.082C13.964 200.634 13.856 201.294 13.856 201.822C13.856 203.262 14.84 204.354 16.316 204.354C16.892 204.354 17.36 204.186 17.768 203.778C18.104 203.442 18.32 203.01 18.524 202.542L18.86 201.774C18.992 201.474 19.124 201.174 19.364 200.934C19.568 200.718 19.748 200.634 20.06 200.634C20.804 200.634 21.296 201.186 21.296 201.978C21.296 202.434 21.14 202.722 21.02 202.878C20.876 203.058 20.636 203.238 20.42 203.346L20.888 204.054ZM14 205.981L14 207.601C14 209.029 14.3 209.797 14.924 210.529C15.416 211.105 16.316 211.933 17.996 211.933C19.436 211.933 20.456 211.297 21.068 210.565C21.92 209.557 22.004 208.417 22.004 207.613L22.004 205.981L14 205.981ZM21.164 206.869L21.164 207.649C21.164 209.677 19.916 211.021 17.996 211.021C16.856 211.021 16.064 210.541 15.56 209.941C14.912 209.161 14.84 208.285 14.84 207.649L14.84 206.869L21.164 206.869ZM21.164 217.475L22.004 217.475L22.004 212.699L21.164 212.699L21.164 214.643L14 214.643L14 215.531L21.164 215.531L21.164 217.475Z" fill="black"></path>
<path d="M385.339 229.836V228.996H380.563V229.836H382.507V237H383.395V229.836H385.339ZM386.536 228.996V237H387.424V228.996H386.536ZM390.125 237L390.917 231.432L393.605 237.336L396.329 231.432L397.085 237H397.997L396.749 228.54L393.617 235.308L390.545 228.552L389.213 237H390.125ZM404 228.996H399.848V237H404V236.16H400.736V233.052H403.904V232.212H400.736V229.836H404V228.996Z" fill="black"></path>
<line x1="33" y1="217.5" x2="405" y2="217.5" stroke="black"></line>
<rect x="116" y="80" width="100" height="30" fill="white"></rect>
<path d="M185.608 95.2028L175.97 131.173L149.638 104.841L185.608 95.2028Z" fill="white"></path>
<path d="M127.892 94.02V99H130.04C130.436 99 130.916 98.892 131.216 98.664C131.492 98.448 131.732 98.064 131.732 97.536C131.732 97.152 131.612 96.84 131.336 96.576C131.096 96.348 130.856 96.276 130.712 96.24C131.012 96.048 131.252 95.736 131.252 95.244C131.252 94.74 131 94.452 130.82 94.308C130.472 94.032 130.04 94.02 129.776 94.02H127.892ZM128.756 96.048V94.788H129.524C129.788 94.788 130.016 94.776 130.22 94.908C130.352 95.004 130.46 95.148 130.46 95.388C130.46 95.688 130.316 95.832 130.22 95.904C130.028 96.036 129.752 96.048 129.668 96.048H128.756ZM128.756 98.232V96.768H129.86C130.1 96.768 130.424 96.78 130.64 96.948C130.808 97.08 130.892 97.284 130.892 97.512C130.892 97.74 130.76 97.944 130.604 98.064C130.388 98.22 130.064 98.232 129.824 98.232H128.756ZM133.048 99H134.788C135.28 99 135.82 98.988 136.252 98.58C136.468 98.376 136.696 98.004 136.696 97.464C136.696 96.96 136.504 96.612 136.312 96.42C135.868 95.964 135.244 95.928 134.8 95.928H133.912V94.02H133.048V99ZM133.912 98.232V96.696H134.728C135.004 96.696 135.28 96.696 135.496 96.84C135.748 96.996 135.808 97.248 135.808 97.464C135.808 97.848 135.592 98.028 135.484 98.1C135.28 98.22 135.004 98.232 134.716 98.232H133.912ZM137.296 99H138.16V94.02H137.296V99ZM139.067 99H140.123L141.695 96.972L143.267 99H144.323L142.259 96.348L144.083 94.02H143.027L141.719 95.712L140.435 94.02H139.379L141.191 96.336L139.067 99ZM147.447 99.144C148.959 99.144 150.087 98.04 150.087 96.528C150.087 95.016 148.971 93.9 147.447 93.9C145.923 93.9 144.807 95.016 144.807 96.528C144.807 98.04 145.935 99.144 147.447 99.144ZM147.447 94.668C148.359 94.668 149.199 95.304 149.199 96.528C149.199 97.74 148.347 98.376 147.447 98.376C146.559 98.376 145.695 97.752 145.695 96.528C145.695 95.316 146.535 94.668 147.447 94.668ZM151.772 94.02V96.24C151.772 96.744 151.736 97.212 151.568 97.56C151.4 97.908 151.076 98.196 150.644 98.208V100.32H151.436V99H155.228V100.32H156.02V98.208H155.276V94.02H151.772ZM154.412 98.208H152.036C152.504 97.8 152.636 97.26 152.636 96.684V94.812H154.412V98.208ZM159.732 99H160.596V96.852H162.948V99H163.812V94.02H162.948V96.06H160.596V94.02H159.732V99ZM169.255 94.728C169.027 94.428 168.511 93.9 167.551 93.9C166.279 93.9 165.127 94.788 165.127 96.504C165.127 98.256 166.291 99.144 167.551 99.144C168.427 99.144 168.967 98.676 169.255 98.304V99H170.119V94.02H169.255V94.728ZM167.647 94.668C168.415 94.668 169.303 95.232 169.303 96.516C169.303 97.5 168.703 98.376 167.647 98.376C166.615 98.376 166.015 97.572 166.015 96.504C166.015 95.292 166.795 94.668 167.647 94.668ZM178.396 90.6C178.288 90.876 178.072 91.08 177.4 91.236C176.824 91.368 176.2 91.476 175.66 91.848C174.28 92.796 174.244 95.064 174.244 95.952C174.244 96.828 174.328 97.824 175.084 98.52C175.408 98.82 175.96 99.144 176.8 99.144C178.432 99.144 179.524 98.016 179.524 96.528C179.524 95.04 178.42 93.9 176.932 93.9C176.044 93.9 175.444 94.26 175.12 94.812H175.096C175.132 93.9 175.516 93 176.14 92.532C176.62 92.184 177.256 92.076 177.724 91.956C178.252 91.824 179.068 91.56 179.356 90.6H178.396ZM176.884 94.668C177.796 94.668 178.636 95.304 178.636 96.528C178.636 97.74 177.784 98.376 176.884 98.376C175.996 98.376 175.132 97.752 175.132 96.528C175.132 95.316 175.972 94.668 176.884 94.668ZM180.849 94.02V99.348L184.257 95.676V99H185.121V93.636L181.713 97.308V94.02H180.849ZM187.619 98.304C187.991 98.784 188.555 99.144 189.359 99.144C190.871 99.144 191.747 97.908 191.747 96.54C191.747 95.196 190.883 93.9 189.323 93.9C188.963 93.9 188.207 93.984 187.619 94.716V94.02H186.755V101.76H187.619V98.304ZM189.239 98.376C188.219 98.376 187.571 97.548 187.571 96.528C187.571 95.328 188.423 94.668 189.227 94.668C190.031 94.668 190.859 95.316 190.859 96.54C190.859 97.536 190.247 98.376 189.239 98.376ZM195.4 94.02V96.06L193.528 94.02H192.52L194.68 96.324L192.304 99H193.384L195.232 96.9L195.4 97.068V99H196.264V97.068L196.432 96.9L198.28 99H199.36L196.984 96.324L199.144 94.02H198.136L196.264 96.06V94.02H195.4ZM200.208 101.76H201.168L204.828 94.02H203.868L202.248 97.584L200.484 94.02H199.5L201.792 98.532L200.208 101.76Z" fill="black"></path>
<circle cx="179.5" cy="143.5" r="9.5" fill="#FF3333"></circle>
<defs>
<filter id="filter0_i_29_50" x="0" y="0" width="445" height="261" filterUnits="userSpaceOnUse" color-interpolation-filters="sRGB">
<feFlood flood-opacity="0" result="BackgroundImageFix"></feFlood>
<feBlend mode="normal" in="SourceGraphic" in2="BackgroundImageFix" result="shape"></feBlend>
<feColorMatrix in="SourceAlpha" type="matrix" values="0 0 0 0 0 0 0 0 0 0 0 0 0 0 0 0 0 0 127 0" result="hardAlpha"></feColorMatrix>
<feOffset dx="10" dy="10"></feOffset>
<feGaussianBlur stdDeviation="15"></feGaussianBlur>
<feComposite in2="hardAlpha" operator="arithmetic" k2="-1" k3="1"></feComposite>
<feColorMatrix type="matrix" values="0 0 0 0 0.498568 0 0 0 0 0.498568 0 0 0 0 0.498568 0 0 0 0.3 0"></feColorMatrix>
<feBlend mode="normal" in2="shape" result="effect1_innerShadow_29_50"></feBlend>
</filter>
</defs>
</svg>
